<svg width="32" height="34" viewBox="0 0 32 34" fill="none" xmlns="http://www.w3.org/2000/svg">
    <path d="M11.2247 31.6223V26.5261C11.2247 25.2252 12.287 24.1706 13.5975 24.1706H18.3878C19.0171 24.1706 19.6206 24.4187 20.0656 24.8605C20.5105 25.3022 20.7605 25.9013 20.7605 26.5261V31.6223C20.7565 32.1631 20.9702 32.6832 21.354 33.067C21.7379 33.4508 22.2602 33.6667 22.805 33.6667H26.0731C27.5995 33.6706 29.0647 33.0714 30.1454 32.0014C31.2261 30.9313 31.8334 29.4783 31.8334 27.9631V13.4448C31.8334 12.2208 31.2869 11.0598 30.3411 10.2745L19.2235 1.45982C17.2895 -0.0856899 14.5186 -0.0357892 12.6424 1.57834L1.77844 10.2745C0.787982 11.0366 0.196002 12.2011 0.166748 13.4448V27.9483C0.166748 31.1065 2.74572 33.6667 5.92704 33.6667H9.12056C10.2521 33.6667 11.1717 32.7604 11.1799 31.6371L11.2247 31.6223Z" fill="white"/>
</svg>