<svg width="20" height="20" viewBox="0 0 20 20" fill="none" xmlns="http://www.w3.org/2000/svg">
    <path d="M2.5 15.8332V8.39155C2.49996 8.11723 2.56763 7.84714 2.69701 7.60525C2.82639 7.36335 3.01347 7.15713 3.24167 7.00489L9.075 3.11655C9.34888 2.93382 9.67075 2.8363 10 2.8363C10.3292 2.8363 10.6511 2.93382 10.925 3.11655L16.7583 7.00489C16.9865 7.15713 17.1736 7.36335 17.303 7.60525C17.4324 7.84714 17.5 8.11723 17.5 8.39155V15.8332M2.5 15.8332C2.5 16.2752 2.67559 16.6992 2.98816 17.0117C3.30072 17.3243 3.72464 17.4999 4.16667 17.4999H15.8333C16.2754 17.4999 16.6993 17.3243 17.0118 17.0117C17.3244 16.6992 17.5 16.2752 17.5 15.8332M2.5 15.8332L8.125 12.0832M17.5 15.8332L11.875 12.0832M8.125 12.0832L2.5 8.33322M8.125 12.0832L9.075 12.7166C9.34888 12.8993 9.67075 12.9968 10 12.9968C10.3292 12.9968 10.6511 12.8993 10.925 12.7166L11.875 12.0832M11.875 12.0832L17.5 8.33322" stroke="#96A7AF" stroke-width="2" stroke-linecap="round" stroke-linejoin="round"/>
</svg>