<svg width="14" height="18" viewBox="0 0 14 18" fill="none" xmlns="http://www.w3.org/2000/svg">
    <path d="M10.3334 4.83333C10.3334 5.71739 9.98223 6.56523 9.35711 7.19036C8.73198 7.81548 7.88414 8.16667 7.00008 8.16667C6.11603 8.16667 5.26818 7.81548 4.64306 7.19036C4.01794 6.56523 3.66675 5.71739 3.66675 4.83333C3.66675 3.94928 4.01794 3.10143 4.64306 2.47631C5.26818 1.85119 6.11603 1.5 7.00008 1.5C7.88414 1.5 8.73198 1.85119 9.35711 2.47631C9.98223 3.10143 10.3334 3.94928 10.3334 4.83333V4.83333ZM7.00008 10.6667C5.45299 10.6667 3.96925 11.2812 2.87529 12.3752C1.78133 13.4692 1.16675 14.9529 1.16675 16.5H12.8334C12.8334 14.9529 12.2188 13.4692 11.1249 12.3752C10.0309 11.2812 8.54718 10.6667 7.00008 10.6667V10.6667Z" stroke="#96A7AF" stroke-width="2" stroke-linecap="round" stroke-linejoin="round"/>
</svg>